<?xml version="1.0" encoding="utf-8" standalone="no"?>

<svg xmlns:dc="http://purl.org/dc/elements/1.1/" xmlns:cc="http://creativecommons.org/ns#" xmlns:rdf="http://www.w3.org/1999/02/22-rdf-syntax-ns#" xmlns:svg="http://www.w3.org/2000/svg" xmlns="http://www.w3.org/2000/svg" xmlns:sodipodi="http://sodipodi.sourceforge.net/DTD/sodipodi-0.dtd" xmlns:inkscape="http://www.inkscape.org/namespaces/inkscape" version="1.1" x="0px" y="0px" width="405px" height="132px">
	<metadata id="metadata5030">
		<rdf:RDF>
			<cc:Work rdf:about="">
				<dc:format>image/svg+xml</dc:format>
				<dc:type rdf:resource="http://purl.org/dc/dcmitype/StillImage" />
			</cc:Work>
		</rdf:RDF>
	</metadata>
	<defs>
		<filter id="lighting_filter">
			<feSpecularLighting result="result1" lighting-color = "yellow">
				<feSpotLight x="0" y="40" z="50" pointsAtX="30%" pointsAtY="30%" pointsAtZ="-10%" limitingConeAngle="50" specularExponent="2" />
			</feSpecularLighting>
			<feComposite operator="arithmetic" k1="1" k2="1" k3="0" k4="0" in="SourceGraphic" in2="result1" />
		</filter>
	</defs>

	<!-- ************** -->
	<!-- **  CIRCLES ** -->
	<!-- ************** -->
	<circle fill="#434444" cx="64.875" cy="65.5" r="47.667" id="circle1" />
	<circle fill="#020202" cx="64.875" cy="62.25" r="47.667" id="circle2" />

	<!-- ********** -->
	<!-- ** ICON ** -->
	<!-- ********** -->

	<!-- ICON - "F" -->
	<linearGradient id="SVGID_1_" gradientUnits="userSpaceOnUse" x1="45.0576" y1="34.8384" x2="48.7246" y2="58.8384">
		<stop offset="0" style="stop-color:#5AAAFF" />
		<stop offset="1" style="stop-color:#10A6FB" />
	</linearGradient>
	<polygon fill="url(#SVGID_1_)" points="34,38.75 57.125,34.5 59,42.125 42.375,44.625 43.375,52.875 53.25,52 54.5,58.125 45.5,59.833 49.375,72.625 38.25,74.25" id="iconF" />

	<!-- ICON - "Noise" -->
	<polygon fill="#FFFFFF" points="59,56.625 66.125,55.25 67.875,71.125 75.5,70 76.5,75.625 57.625,80.75 56,73.625 61.736,72.669" id="iconNoise" />

	<!-- ICON - "Smile" -->
	<path fill="#FFFFFF" d="M84.375,70.375c0,0,0.125,16.375-16.5,19c0,0-17,2.125-20.25-10.25L39,79.375c0,0,7,22.625,30.5,18.25 c0,0,21.25-1.5,22.875-26.625L84.375,70.375z" id="iconSmile" />

	<!-- ICON - "P" -->
	<linearGradient id="SVGID_11_" gradientUnits="userSpaceOnUse" x1="75.6704" y1="27.9995" x2="77.6704" y2="41.9995">
		<stop offset="0" style="stop-color:#F2F4D3" />
		<stop offset="1" style="stop-color:#DBE44B" />
	</linearGradient>
	<path fill="url(#SVGID_11_)" d="M93.625,64.5L89,27.875L68.5,31.5L64.875,37v8.875l7,5.125l11.75-0.625V65.75L93.625,64.5z M81.333,41.583l-0.417,0.583L76.5,42.833l-1.417-0.583v-2.083L75.5,39l5-0.583l0.833,1.417V41.583z" id="iconP" />

	<!-- ********** -->
	<!-- ** FACE ** -->
	<!-- ********** -->

	<!-- FACE - "F" -->
	<polygon filter="url(#lighting_filter)" fill="#CAECFF" stroke="#03A3FF" stroke-miterlimit="10" points="153.5,61.5 125.875,62.75 126.75,105.375 138.625,105.375 135.375,89 146,88.75 145.75,82 135,80.75 134.75,69.375 153.5,69.5" id="BlueF" />

	<!-- FACE - "A" -->
	<path filter="url(#lighting_filter)" fill="#CAECFF" stroke="#03A3FF" stroke-miterlimit="10" d="M172.25,62.25h-13.125l-9.875,43.125l9.875-2.375 l3.125-13.875L165.125,89l5.125,16.375H176L172.25,62.25z M163.333,79.333l1.5-8.333l1.5,8.333H163.333z" id="BlueA" />

	<!-- FACE - "C" -->
	<polygon filter="url(#lighting_filter)" fill="#CAECFF" stroke="#03A3FF" stroke-miterlimit="10" points="203.625,62.25 205,73 194.5,70.375 191.375,77.625 194.75,94.625 207,94.625 207,104.875 191.375,104.875 183.25,100.375 181.125,70.375 185.625,62.25" id="BlueC" />

	<!-- FACE - "E" -->
	<polygon filter="url(#lighting_filter)" fill="#CAECFF" stroke="#03A3FF" stroke-miterlimit="10" points="214.375,61.5 239.625,62.25 239.625,70.125 221.75,68.25 221,80 235.625,80.625 235.425,87.751 233.857,89.5 220.25,89.5 220.375,94.875 238.5,96.5 238.375,104.875 215,104.875 212.875,103.75" id="BlueE" />

	<!-- *********** -->
	<!-- ** PLACE ** -->
	<!-- *********** -->
	<linearGradient id="gradiantPlace" gradientUnits="userSpaceOnUse" x1="268.9375" y1="73" x2="268.9375" y2="93.0444">
		<stop offset="0" style="stop-color:#F2F4D3" id="stop4998" />
		<stop offset="1" style="stop-color:#DAE02F" id="stop5000" />
	</linearGradient>

	<!-- PLACE - "P" -->
	<path fill="url(#gradiantPlace)" stroke="#DAE07E" stroke-miterlimit="10" d="M277.625,66.5h-20.75l-0.625,37.25h8.625L264,87.25h11.875 l5.75-5.375V72.75L277.625,66.5z M273.063,78.313l-0.625,1.021h-6.063l-0.75-0.771v-3.396l1.188-0.854h5l1.25,2.125V78.313z" id="YellowP" />

	<!-- PLACE - "L" -->
	<polygon fill="url(#gradiantPlace)" stroke="#DAE07E" stroke-miterlimit="10" points="288.25,65.5 297.5,65.5 294.125,97.5 302.875,95.25 303.625,103.75 284.875,103.75" id="YellowL" />

	<!-- PLACE - "A" -->
	<path fill="url(#gradiantPlace)" stroke="#DAE07E" stroke-miterlimit="10" d="M326.747,66.5h-13.125l-9.186,38.875l9.875-2.375 l3.125-13.875L320.312,89l3.355,15.875l7.52,0.5L326.747,66.5z M318.52,80.99l1.5-6.74l1.5,6.74H318.52z" id="YellowA" />

	<!-- PLACE - "C" -->
	<polygon fill="url(#gradiantPlace)" stroke="#DAE07E" stroke-miterlimit="10" points="350.667,65.5 353.167,75.167 343,73.667 340.167,78.5 343,95.333 353.833,95.333 353.833,103.75 340.167,103.75 333.167,99.667 331.187,74.167 334.833,66.5" id="YellowC" />

	<!-- PLACE - "E" -->
	<polygon fill="url(#gradiantPlace)" stroke="#DAE07E" stroke-miterlimit="10" points="382.167,65.5 384.167,66.5 384.167,72.5 368.167,71 367.167,81.667 380,81.667 379.833,90.833 366.5,90.833 366.5,94 383.167,96.333 382.833,103.75 359.667,103.75 360.833,65.5" id="YellowE" />

	<!-- THE -->
	<path style="fill:none;stroke:#ffffff;stroke-width:4;stroke-linecap:butt;stroke-linejoin:miter;stroke-miterlimit:4;stroke-opacity:1;stroke-dasharray:none" d="m 121.73296,35.640384 c 1.47178,0 2.94356,0 4.41534,0 0.0853,0 0.9202,0.0094 0.92955,0 0.0548,-0.05477 -0.0548,-0.177612 0,-0.232386 0.0548,-0.05477 0.15492,0 0.23238,0 0.46478,0 0.92955,0 1.39432,0 0.54224,0 1.08447,0 1.62671,0 0.0775,0 0.17761,0.05477 0.23238,0 0.0548,-0.05477 -0.0548,-0.177613 0,-0.232387 0.0548,-0.05477 0.15493,0 0.23239,0 0.22477,0 1.32539,0.03446 1.39432,0 0.098,-0.04899 0.1344,-0.183395 0.23238,-0.232386 0.084,-0.04202 1.0003,0 1.16194,0 0.92954,0 1.85909,0 2.78863,0 1.16193,0 2.32387,0 3.4858,0 0.0564,0 0.68968,0.0075 0.69716,0 0.30984,-0.309849 -0.38731,-0.232387 0.23238,-0.232387" id="path5036" />
	<path style="fill:none;stroke:#ffffff;stroke-width:4;stroke-linecap:butt;stroke-linejoin:miter;stroke-miterlimit:4;stroke-opacity:1;stroke-dasharray:none" d="m 131.95796,36.569929 c 0,0.697159 0,1.394319 0,2.091478 0,0.07746 0.0548,0.177612 0,0.232386 -0.0548,0.05477 -0.17761,-0.05477 -0.23239,0 -0.11619,0.116193 0.1162,0.580966 0,0.697159 -0.0548,0.05477 -0.17761,-0.05477 -0.23238,0 -0.0548,0.05477 0,0.154924 0,0.232386 0,0.07746 0,0.154925 0,0.232387 0,0.697159 0,1.394318 0,2.091477 0,1.161932 0,2.323864 0,3.485796 0,0.07746 0,0.154924 0,0.232386 0,0.07746 -0.0548,0.177612 0,0.232386 0.0548,0.05477 0.17761,-0.05477 0.23238,0 0.0548,0.05477 0,0.154925 0,0.232387 0,0.38731 0,0.774621 0,1.161931 0,0.07746 -0.0548,0.177613 0,0.232387 0.0548,0.05477 0.17762,-0.05477 0.23239,0 0.11619,0.116193 -0.11619,0.580966 0,0.697159 0.0548,0.05477 0.17761,-0.05477 0.23239,0 0.0548,0.05477 0,0.154924 0,0.232386 0,0.464773 0,0.929546 0,1.394318 0,0.08534 -0.009,0.920194 0,0.929546 0.0548,0.05477 0.17761,-0.05477 0.23238,0 0.0105,0.01053 0,1.052362 0,1.161932" id="path5038" />
	<path style="fill:none;stroke:#ffffff;stroke-width:4;stroke-linecap:butt;stroke-linejoin:miter;stroke-miterlimit:4;stroke-opacity:1;stroke-dasharray:none" d="m 144.27444,35.87277 c -0.25118,1.004695 -0.23239,0.610161 -0.23239,1.161932 0,0.07746 0.0548,0.177612 0,0.232386 -0.0548,0.05477 -0.17761,-0.05477 -0.23238,0 -0.0548,0.05477 0.0548,0.177613 0,0.232387 -0.0548,0.05477 -0.17762,-0.05477 -0.23239,0 -0.0105,0.01053 0,1.052362 0,1.161932 0,0.07746 0.0548,0.177612 0,0.232386 -0.0548,0.05477 -0.17761,-0.05477 -0.23239,0 -0.0105,0.01053 0,1.052362 0,1.161932 0,0.07746 0,0.154924 0,0.232386 0,0.07746 0.0548,0.177613 0,0.232387 -0.0548,0.05477 -0.17761,-0.05477 -0.23238,0 -0.1162,0.116193 0.11619,0.580965 0,0.697159 -0.0548,0.05477 -0.17762,-0.05477 -0.23239,0 -0.0548,0.05477 0,0.154924 0,0.232386 0,0.464773 0,0.929545 0,1.394318 0,0.10957 0.0105,1.1514 0,1.161932 -0.0548,0.05477 -0.17761,-0.05477 -0.23239,0 -0.0548,0.05477 0,0.154924 0,0.232386 0,0.07746 0,0.154925 0,0.232387 0,0.852083 0,1.704166 0,2.55625 0,0.109569 -0.0105,1.151399 0,1.161932 0.0548,0.05477 0.17762,-0.05477 0.23239,0 0.0548,0.05477 -0.0548,0.177612 0,0.232386 0.0548,0.05477 0.17761,-0.05477 0.23239,0 0.10954,0.109548 -0.10955,0.355225 0,0.464773 0.0548,0.05477 0.17761,-0.05477 0.23238,0 0.0548,0.05477 -0.0548,0.177612 0,0.232386 0.0548,0.05477 0.17762,-0.05477 0.23239,0 0.10955,0.109548 -0.10955,0.355225 0,0.464773 0.0548,0.05477 0.17761,-0.05477 0.23239,0 0.0774,0.07737 -0.0774,0.387406 0,0.464772 0.0548,0.05477 0.17761,-0.05477 0.23238,0 0.11619,0.116194 -0.11619,0.580966 0,0.69716 0.0548,0.05477 0.17761,-0.05477 0.23239,0 0.10955,0.109548 -0.10955,0.355224 0,0.464772 0.0548,0.05477 0.17761,-0.05477 0.23238,0 0.1162,0.116193 -0.11619,0.580966 0,0.697159 0.0548,0.05477 0.17762,-0.05477 0.23239,0 0.0205,0.0205 0,0.89765 0,0.232387" id="path5040" />
	<path style="fill:none;stroke:#ffffff;stroke-width:4;stroke-linecap:butt;stroke-linejoin:miter;stroke-miterlimit:4;stroke-opacity:1;stroke-dasharray:none" d="m 144.04205,44.935838 c 3.09849,0 6.19697,0 9.29546,0" id="path5042" />
	<path style="fill:none;stroke:#ffffff;stroke-width:4;stroke-linecap:butt;stroke-linejoin:miter;stroke-miterlimit:4;stroke-opacity:1;stroke-dasharray:none" d="m 153.80228,36.569929 c 0,0.309849 0,0.619697 0,0.929546 0,0.619697 -0.0775,-0.07746 0.23239,0.232386 0.0548,0.05477 0,0.154924 0,0.232387 0,0.07746 0,0.154924 0,0.232386 0,0.774621 0,1.549242 0,2.323864 0,0.07746 0,0.154924 0,0.232386 0,0.07746 -0.0548,0.177612 0,0.232386 0.0548,0.05477 0.17761,-0.05477 0.23238,0 0.007,0.0075 0,0.640799 0,0.697159 0,0.697159 0,1.394319 0,2.091478 0,0.07746 0,0.154924 0,0.232386 0,0.07746 0.0548,0.177612 0,0.232386 -0.0548,0.05477 -0.17761,-0.05477 -0.23238,0 -0.0105,0.01053 0,1.052363 0,1.161932 0,0.07746 0.0548,0.177613 0,0.232387 -0.0548,0.05477 -0.17762,-0.05477 -0.23239,0 -0.0105,0.01053 0,1.052362 0,1.161931 0,0.387311 0,0.774622 0,1.161932 0,0.07746 0.0548,0.177613 0,0.232387 -0.30985,0.309848 -0.23239,-0.387311 -0.23239,0.232386 0,0.05636 0.007,0.689685 0,0.697159 -0.0548,0.05477 -0.17761,-0.05477 -0.23238,0 -0.0548,0.05477 0.0548,0.177612 0,0.232386 -0.0548,0.05477 -0.17762,-0.05477 -0.23239,0 -0.11619,0.116194 0.11619,0.580966 0,0.697159 -0.0548,0.05477 -0.17761,-0.05477 -0.23239,0 -0.0548,0.05477 0.0548,0.177613 0,0.232387 -0.0548,0.05477 -0.17761,-0.05477 -0.23238,0 -0.1162,0.116193 0.11619,0.580966 0,0.697159 -0.0775,0.07749 -0.38728,-0.07749 -0.46478,0 -0.0548,0.05477 0,0.154924 0,0.232386 0,0.464773 0,0.929546 0,1.394318" id="path5044" />
	<path style="fill:none;stroke:#ffffff;stroke-width:4;stroke-linecap:butt;stroke-linejoin:miter;stroke-miterlimit:4;stroke-opacity:1;stroke-dasharray:none" d="m 167.28069,36.337543 c -0.30985,0.07746 -0.85209,0.542235 -0.92955,0.232386 -0.0775,-0.309848 1.15539,-0.458225 0.92955,-0.232386 -0.29497,0.294967 -0.76619,0.332859 -1.16193,0.464773 -0.13112,0.0437 -0.54446,0 -0.69716,0 -0.54224,0 -1.08447,0 -1.62671,0 -0.12152,0 -0.86844,-0.03055 -0.92954,0 -0.098,0.04899 -0.13441,0.183395 -0.23239,0.232386 -0.0693,0.03464 -0.17761,-0.05477 -0.23239,0 -0.0548,0.05477 0.0548,0.177612 0,0.232386 -0.0548,0.05477 -0.15492,0 -0.23238,0 -0.0775,0 -0.15493,0 -0.23239,0 -0.6197,0 -1.23939,0 -1.85909,0 -0.46477,0 -0.92954,0 -1.39432,0 -0.0775,0 -0.23238,0.07746 -0.23238,0 0,-0.07746 0.30984,0 0.23238,0 -0.15492,0 -0.30985,0 -0.46477,0 -0.0775,0 -0.17761,0.05477 -0.23239,0 -0.0548,-0.05477 0,-0.154924 0,-0.232386 -0.81332,0.362852 0.84079,1.360426 0.92955,1.626705 0.0416,0.124932 0,0.732795 0,0.929545 0,0.619697 0,1.239394 0,1.859091 0,0.07746 0,0.154924 0,0.232386 0,0.07746 0.0548,0.177613 0,0.232387 -0.0548,0.05477 -0.17761,-0.05477 -0.23239,0 -0.0548,0.05477 0,0.154924 0,0.232386 0,0.387311 0,0.774621 0,1.161932 0,1.239394 0,2.478788 0,3.718182 0,0.05636 -0.007,0.689685 0,0.697159 0.0548,0.05477 0.17762,-0.05477 0.23239,0 0.0105,0.01053 0,1.052362 0,1.161932 0,0.774621 0,1.549242 0,2.323863 0,0.06887 0,1.158774 0,0.464773 0.38731,0.154924 0.76619,0.332859 1.16193,0.464773 0.14626,0.04875 0.95247,0 1.16193,0 0.77462,0 1.54925,0 2.32387,0 0.69716,0 1.39431,0 2.09147,0 0.30985,0 0.6197,0 0.92955,0 0.0775,0 0.23239,-0.07746 0.23239,0 0,0.07746 -0.30985,0 -0.23239,0 0.15492,0 0.3262,-0.06929 0.46477,0 0.0693,0.03464 -0.0548,0.177612 0,0.232386 0.0105,0.01053 1.05236,0 1.16193,0" id="path5046" />
	<path style="fill:none;stroke:#ffffff;stroke-width:4;stroke-linecap:butt;stroke-linejoin:miter;stroke-miterlimit:4;stroke-opacity:1;stroke-dasharray:none" d="m 159.61194,44.703452 c 1.23939,0 2.47879,0 3.71818,0 0.0853,0 0.92019,-0.0094 0.92955,0 0.0548,0.05477 -0.0548,0.177612 0,0.232386 0.0548,0.05477 0.15492,0 0.23238,0 0.38731,0 0.77462,0 1.16193,0" id="path5048" />
</svg>
